<?xml version="1.0" standalone="no"?><!DOCTYPE svg PUBLIC "-//W3C//DTD SVG 1.1//EN" "http://www.w3.org/Graphics/SVG/1.1/DTD/svg11.dtd"><svg t="1744800650547" class="icon" viewBox="0 0 1024 1024" version="1.1" xmlns="http://www.w3.org/2000/svg" p-id="1570" width="64" height="64" xmlns:xlink="http://www.w3.org/1999/xlink"><path d="M512 512m-448 0a448 448 0 1 0 896 0 448 448 0 1 0-896 0Z" fill="#4565ED" p-id="1571"></path><path d="M512 512m-448 0a448 448 0 1 0 896 0 448 448 0 1 0-896 0Z" fill="#88C6FF" p-id="1572"></path><path d="M885.1 760H138.9C219.1 880.6 356.3 960 512 960s292.9-79.4 373.1-200z" fill="#0285FF" p-id="1573"></path><path d="M607 717l-190 40c-5.5 0-10-4.5-10-10V357c0-5.5 4.5-10 10-10l190-40c5.5 0 10 4.5 10 10v390c0 5.5-4.5 10-10 10z" fill="#D9EDFF" p-id="1574"></path><path d="M837 757l-190-40c-5.5 0-10-4.5-10-10V317c0-5.5 4.5-10 10-10l190 40c5.5 0 10 4.5 10 10v390c0 5.5-4.5 10-10 10zM377 757l-190-40c-5.5 0-10-4.5-10-10V317c0-5.5 4.5-10 10-10l190 40c5.5 0 10 4.5 10 10v390c0 5.5-4.5 10-10 10z" fill="#0285FF" p-id="1575"></path><path d="M625.9 172.3c-63.3 0-114.2 51.3-114.6 114.6-0.6 84.6 51.2 172.6 114.6 214.6 63.4-42 115.2-130 114.6-214.6-0.4-63.3-51.3-114.6-114.6-114.6z" fill="#FFEC16" p-id="1576"></path></svg>